<svg xmlns="http://www.w3.org/2000/svg" xmlns:xlink="http://www.w3.org/1999/xlink" version="1.1" id="id_b5a2cee9-c16a-4fda-ad54-aeb95251510c" x="0px" y="0px" viewBox="0 0 2000 2000" enable-background="new 0 0 2000 2000" xml:space="preserve" style="background-color: #fefdfe" width="2000" height="2000">
<g id="content_5a60c15a-16d9-4a4a-a6e1-8d472af43c20" transform="translate(-8.163726806640625 , 45.836639404296875)">
	<g id="mainImg">
    <rect width="499px" height="499px" fill="none" x="750.3" y="708.3"></rect>
    <svg xmlns="http://www.w3.org/2000/svg" version="1.1" viewBox="0 0 117 117" width="499px" height="499px" x="750.3" y="708.3">
      <path fill="#4873ef" d="   M 4.96 -0.02   L 18.56 0.00   Q 47.56 0.63 76.56 0.00   L 113.50 -0.03   Q 114.51 42.87 113.80 85.32   A 1.70 1.70 0.0 0 1 112.04 86.99   Q 100.22 86.57 88.75 86.46   Q 86.22 86.43 86.20 84.19   Q 85.98 59.75 86.00 35.25   A 0.69 0.68 -89.6 0 0 85.33 34.56   L 35.00 34.01   A 1.97 1.97 0.0 0 0 33.01 35.98   L 33.00 84.90   A 1.65 1.64 -1.9 0 1 31.46 86.54   Q 18.87 87.35 5.40 86.19   A 0.57 0.56 2.3 0 1 4.89 85.64   Q 4.03 42.82 4.96 -0.02   Z"></path>
      <path fill="#4873ef" d="   M 71.83 117.00   L 47.19 117.00   L 47.06 47.77   A 0.71 0.70 -89.2 0 1 47.78 47.06   L 71.09 47.54   A 0.92 0.91 1.0 0 1 71.99 48.46   L 71.83 117.00   Z"></path>
    </svg>
  </g>
	<text id="mainTitle-nomal_52dc55d6-d724-4205-aaba-63637e5c26c8" transform="matrix(1 0 0 1 849.9999847412109 1373.124)" font-family="SJpusong-Regular_273483" font-size="150px" style="font-family: SJpusong-Regular_273483" fill="#4874ee">童话</text>
	<path id="subTitle-nomal_x5F_00000060026023328026719860000010285732370862093485_x5F__7ce8f116-c71f-41e6-b0bb-a639c6fb1e3d" fill="none" d="M663.4,767.9   c59.2-92.6,160.9-168.2,290.5-173.5l0,0c165.1-14.5,303.1,48.9,382.2,188.3"></path>
	<text id="subTitle-nomal_e62199e4-ba23-4f01-a31a-61941e7e4a8d" textLength="804.2230834960938">
    <textPath xlink:href="#subTitle-nomal_x5F_00000060026023328026719860000010285732370862093485_x5F__7ce8f116-c71f-41e6-b0bb-a639c6fb1e3d" startOffset="1.39%" textLength="804.2230834960938">
      <tspan font-family="jiangchengyuanti400W_96443" font-size="74.3379px" style="font-family: jiangchengyuanti400W_96443" fill="#4874ee">童话的博客</tspan>
    </textPath>
  </text>
	<g id="fillTextColor_73a9d409-08b8-4a80-b515-e4cc333d2b31" fill="#4874ee">
		<path d="M654.1,960h-43c-1.4,0-2.6-1.2-2.6-2.6s1.2-2.6,2.6-2.6h43c1.4,0,2.6,1.2,2.6,2.6S655.6,960,654.1,960z"></path>
		<path d="M654.1,945.7h-43c-1.4,0-2.6-1.2-2.6-2.6s1.2-2.6,2.6-2.6h43c1.4,0,2.6,1.2,2.6,2.6S655.6,945.7,654.1,945.7z"></path>
		<path d="M654.1,928.8h-43c-1.4,0-2.6-1.2-2.6-2.6s1.2-2.6,2.6-2.6h43c1.4,0,2.6,1.2,2.6,2.6S655.6,928.8,654.1,928.8z"></path>
		<path d="M1388.4,961.3h-43c-1.4,0-2.6-1.2-2.6-2.6s1.2-2.6,2.6-2.6h43c1.4,0,2.6,1.2,2.6,2.6S1389.8,961.3,1388.4,961.3z"></path>
		<path d="M1388.4,947h-43c-1.4,0-2.6-1.2-2.6-2.6s1.2-2.6,2.6-2.6h43c1.4,0,2.6,1.2,2.6,2.6S1389.8,947,1388.4,947z"></path>
		<path d="M1388.4,930.1h-43c-1.4,0-2.6-1.2-2.6-2.6s1.2-2.6,2.6-2.6h43c1.4,0,2.6,1.2,2.6,2.6S1389.8,930.1,1388.4,930.1z"></path>
	</g>
</g>
</svg>